<?xml version="1.0" encoding="UTF-8" standalone="no"?>
<!-- Created with Inkscape (http://www.inkscape.org/) -->

<svg
   xmlns:dc="http://purl.org/dc/elements/1.1/"
   xmlns:cc="http://creativecommons.org/ns#"
   xmlns:rdf="http://www.w3.org/1999/02/22-rdf-syntax-ns#"
   xmlns:svg="http://www.w3.org/2000/svg"
   xmlns="http://www.w3.org/2000/svg"
   xmlns:sodipodi="http://sodipodi.sourceforge.net/DTD/sodipodi-0.dtd"
   xmlns:inkscape="http://www.inkscape.org/namespaces/inkscape"
   width="32"
   height="32"
   viewBox="0 0 8.4666659 8.4666659"
   version="1.1"
   id="svg8"
   inkscape:export-filename="/tmp/favicon-256.png"
   inkscape:export-xdpi="768"
   inkscape:export-ydpi="768"
   inkscape:version="0.92.1 r15371"
   sodipodi:docname="favicon.svg">
  <defs
     id="defs2" />
  <sodipodi:namedview
     id="base"
     pagecolor="#ffffff"
     bordercolor="#666666"
     borderopacity="1.0"
     inkscape:pageopacity="0.0"
     inkscape:pageshadow="2"
     inkscape:zoom="22.4"
     inkscape:cx="15.369469"
     inkscape:cy="16.294641"
     inkscape:document-units="mm"
     inkscape:current-layer="layer2"
     showgrid="true"
     units="px"
     showguides="true"
     inkscape:guide-bbox="true"
     inkscape:snap-center="true"
     inkscape:snap-object-midpoints="true"
     inkscape:window-width="1916"
     inkscape:window-height="1053"
     inkscape:window-x="0"
     inkscape:window-y="23"
     inkscape:window-maximized="1">
    <inkscape:grid
       type="xygrid"
       id="grid4485"
       spacingx="0.26458331"
       spacingy="0.26458331"
       empspacing="4" />
    <sodipodi:guide
       position="1.5874999,0"
       orientation="1,0"
       id="guide4503"
       inkscape:locked="false"
       inkscape:label=""
       inkscape:color="rgb(0,0,255)" />
    <sodipodi:guide
       position="0,7.4083327"
       orientation="0,1"
       id="guide4505"
       inkscape:locked="false"
       inkscape:label=""
       inkscape:color="rgb(0,0,255)" />
  </sodipodi:namedview>
  <metadata
     id="metadata5">
    <rdf:RDF>
      <cc:Work
         rdf:about="">
        <dc:format>image/svg+xml</dc:format>
        <dc:type
           rdf:resource="http://purl.org/dc/dcmitype/StillImage" />
        <dc:title />
      </cc:Work>
    </rdf:RDF>
  </metadata>
  <g
     inkscape:groupmode="layer"
     id="layer2"
     inkscape:label="main"
     style="display:inline">
    <circle
       style="fill:#76c2af;fill-opacity:1;stroke:none;stroke-width:8.46666622;stroke-miterlimit:4;stroke-dasharray:none"
       id="path4499"
       cx="4.2333331"
       cy="4.2333336"
       r="4.2333331"
       inkscape:label="background" />
    <path
       style="fill:#000000;fill-opacity:0.27443608;stroke:none;stroke-width:10.88571167;stroke-miterlimit:4;stroke-dasharray:none"
       d="M 3.9687496,1.058334 A 2.3812499,2.3812499 0 0 0 1.5874997,3.439584 2.3812499,2.3812499 0 0 0 3.9687496,5.8208339 2.3812499,2.3812499 0 0 0 4.8591345,5.6461677 l 0.8872844,1.6443441 a 0.26458332,0.26458332 0 0 0 0.3586345,0.107487 0.26458332,0.26458332 0 0 0 0.107487,-0.3586345 L 5.3252559,5.3955369 A 2.3812499,2.3812499 0 0 0 6.3499996,3.439584 2.3812499,2.3812499 0 0 0 3.9687496,1.058334 Z m 0,0.5291666 A 1.8520832,1.8520832 0 0 1 5.820833,3.439584 1.8520832,1.8520832 0 0 1 3.9687496,5.2916673 1.8520832,1.8520832 0 0 1 2.1166663,3.439584 1.8520832,1.8520832 0 0 1 3.9687496,1.5875006 Z"
       id="path4523"
       inkscape:connector-curvature="0"
       inkscape:label="shadow" />
    <g
       id="g4538"
       transform="translate(-3.5e-7,-0.52916593)"
       inkscape:label="magnifer">
      <circle
         r="2.1166666"
         cy="3.4395838"
         cx="3.9687498"
         id="path4510"
         style="opacity:0.25;fill:#ffffff;fill-opacity:1;stroke:none;stroke-width:8.46666622;stroke-miterlimit:4;stroke-dasharray:none"
         inkscape:label="glass" />
      <ellipse
         inkscape:transform-center-x="0.26458349"
         transform="rotate(-14.477519)"
         inkscape:transform-center-y="-1.0247265"
         ry="0.26458332"
         rx="0.52916664"
         cy="3.2642174"
         cx="2.9828289"
         id="path4512"
         style="opacity:1;fill:#ffffff;fill-opacity:1;stroke:none;stroke-width:8.46666622;stroke-miterlimit:4;stroke-dasharray:none"
         inkscape:label="flare" />
      <path
         id="path4501"
         d="m 3.96875,1.0583333 a 2.3812499,2.3812499 0 0 0 -2.38125,2.38125 2.3812499,2.3812499 0 0 0 2.38125,2.38125 2.3812499,2.3812499 0 0 0 2.3812499,-2.38125 2.3812499,2.3812499 0 0 0 -2.3812499,-2.38125 z m 0,0.5291667 A 1.8520832,1.8520832 0 0 1 5.8208333,3.4395833 1.8520832,1.8520832 0 0 1 3.96875,5.2916666 1.8520832,1.8520832 0 0 1 2.1166666,3.4395833 1.8520832,1.8520832 0 0 1 3.96875,1.5875 Z"
         style="fill:#4f5d73;fill-opacity:1;stroke:none;stroke-width:10.88571262;stroke-miterlimit:4;stroke-dasharray:none"
         inkscape:connector-curvature="0"
         inkscape:label="body" />
      <path
         inkscape:transform-center-x="-1.5239157"
         inkscape:transform-center-y="2.863456"
         inkscape:connector-curvature="0"
         id="rect4514"
         d="M 4.7412771,5.4279202 5.7466378,7.290587 A 0.26458332,0.26458332 0 0 0 6.1051412,7.3977502 0.26458332,0.26458332 0 0 0 6.2123045,7.0392468 L 5.2069438,5.17658 Z"
         style="opacity:1;fill:#4f5d73;fill-opacity:1;stroke:none;stroke-width:8.46666622;stroke-miterlimit:4;stroke-dasharray:none"
         inkscape:label="handle" />
    </g>
  </g>
</svg>
